<svg xmlns="http://www.w3.org/2000/svg" xmlns:xlink="http://www.w3.org/1999/xlink" contentStyleType="text/css" data-diagram-type="CLASS" height="1030px" preserveAspectRatio="none" style="width:1427px;height:1030px;background:#FFFFFF;" version="1.1" viewBox="0 0 1427 1030" width="1427px" zoomAndPan="magnify"><defs/><g><!--class subject--><g class="entity" data-entity="subject" data-source-line="5" data-uid="ent0002" id="entity_subject"><rect fill="#F1F1F1" height="97.4648" rx="2.5" ry="2.5" style="stroke:#181818;stroke-width:0.5;" width="235.2139" x="414.77" y="23.49"/><ellipse cx="503.374" cy="39.49" fill="#B4A7E5" rx="11" ry="11" style="stroke:#181818;stroke-width:1;"/><path d="M499.8017,35.7551 L499.8017,33.5969 L507.1811,33.5969 L507.1811,35.7551 L504.7158,35.7551 L504.7158,43.8318 L507.1811,43.8318 L507.1811,45.99 L499.8017,45.99 L499.8017,43.8318 L502.2671,43.8318 L502.2671,35.7551 Z " fill="#000000"/><text fill="#000000" font-family="sans-serif" font-size="14" font-style="italic" lengthAdjust="spacing" textLength="49.5059" x="523.874" y="44.781">Subject</text><line style="stroke:#181818;stroke-width:0.5;" x1="415.77" x2="648.9839" y1="55.49" y2="55.49"/><line style="stroke:#181818;stroke-width:0.5;" x1="415.77" x2="648.9839" y1="63.49" y2="63.49"/><text fill="#000000" font-family="sans-serif" font-size="14" lengthAdjust="spacing" textLength="219.5703" x="420.77" y="81.0252">+attach(observer:Observer):void</text><text fill="#000000" font-family="sans-serif" font-size="14" lengthAdjust="spacing" textLength="223.2139" x="420.77" y="97.5134">+detach(observer:Observer):void</text><text fill="#000000" font-family="sans-serif" font-size="14" lengthAdjust="spacing" textLength="213.3086" x="420.77" y="114.0017">+notify(event: GameEvent):void</text></g><!--class observer--><g class="entity" data-entity="observer" data-source-line="11" data-uid="ent0003" id="entity_observer"><rect fill="#F1F1F1" height="64.4883" rx="2.5" ry="2.5" style="stroke:#181818;stroke-width:0.5;" width="233.3545" x="728.7" y="329.86"/><ellipse cx="810.5638" cy="345.86" fill="#B4A7E5" rx="11" ry="11" style="stroke:#181818;stroke-width:1;"/><path d="M806.9915,342.1251 L806.9915,339.9669 L814.3709,339.9669 L814.3709,342.1251 L811.9056,342.1251 L811.9056,350.2018 L814.3709,350.2018 L814.3709,352.36 L806.9915,352.36 L806.9915,350.2018 L809.4568,350.2018 L809.4568,342.1251 Z " fill="#000000"/><text fill="#000000" font-family="sans-serif" font-size="14" font-style="italic" lengthAdjust="spacing" textLength="61.127" x="831.0638" y="351.151">Observer</text><line style="stroke:#181818;stroke-width:0.5;" x1="729.7" x2="961.0545" y1="361.86" y2="361.86"/><line style="stroke:#181818;stroke-width:0.5;" x1="729.7" x2="961.0545" y1="369.86" y2="369.86"/><text fill="#000000" font-family="sans-serif" font-size="14" lengthAdjust="spacing" textLength="221.3545" x="734.7" y="387.3952">+update(event: GameEvent):void</text></g><!--class GM--><g class="entity" data-entity="GM" data-source-line="15" data-uid="ent0004" id="entity_GM"><rect fill="#F1F1F1" height="295.3242" rx="2.5" ry="2.5" style="stroke:#181818;stroke-width:0.5;" width="248.6055" x="408.08" y="214.44"/><ellipse cx="479.5395" cy="230.44" fill="#ADD1B2" rx="11" ry="11" style="stroke:#181818;stroke-width:1;"/><path d="M482.0126,236.5831 Q481.4316,236.8819 480.7924,237.0313 Q480.1532,237.1807 479.4477,237.1807 Q476.9408,237.1807 475.621,235.5289 Q474.3012,233.877 474.3012,230.7559 Q474.3012,227.6265 475.621,225.9747 Q476.9408,224.3228 479.4477,224.3228 Q480.1532,224.3228 480.8007,224.4722 Q481.4482,224.6216 482.0126,224.9205 L482.0126,227.6431 Q481.3818,227.0621 480.7883,226.7923 Q480.1947,226.5225 479.5639,226.5225 Q478.2192,226.5225 477.5343,227.5892 Q476.8495,228.6558 476.8495,230.7559 Q476.8495,232.8477 477.5343,233.9144 Q478.2192,234.981 479.5639,234.981 Q480.1947,234.981 480.7883,234.7112 Q481.3818,234.4415 482.0126,233.8604 Z " fill="#000000"/><text fill="#000000" font-family="sans-serif" font-size="14" lengthAdjust="spacing" textLength="97.1865" x="500.0395" y="235.731">GameManager</text><line style="stroke:#181818;stroke-width:0.5;" x1="409.08" x2="655.6855" y1="246.44" y2="246.44"/><text fill="#000000" font-family="sans-serif" font-size="14" lengthAdjust="spacing" textLength="91.1367" x="414.08" y="263.9752">-Board board</text><text fill="#000000" font-family="sans-serif" font-size="14" lengthAdjust="spacing" textLength="117.8652" x="414.08" y="280.4634">-Pacman pacman</text><text fill="#000000" font-family="sans-serif" font-size="14" lengthAdjust="spacing" textLength="143.9785" x="414.08" y="296.9517">-List&lt;Ghost&gt; ghosts</text><text fill="#000000" font-family="sans-serif" font-size="14" lengthAdjust="spacing" textLength="185.7871" x="414.08" y="313.44">-List&lt;Observer&gt; observers</text><line style="stroke:#181818;stroke-width:0.5;" x1="409.08" x2="655.6855" y1="320.3931" y2="320.3931"/><text fill="#000000" font-family="sans-serif" font-size="14" lengthAdjust="spacing" textLength="219.5703" x="414.08" y="337.9283">+attach(observer:Observer):void</text><text fill="#000000" font-family="sans-serif" font-size="14" lengthAdjust="spacing" textLength="223.2139" x="414.08" y="354.4166">+detach(observer:Observer):void</text><text fill="#000000" font-family="sans-serif" font-size="14" lengthAdjust="spacing" textLength="213.3086" x="414.08" y="370.9048">+notify(event: GameEvent):void</text><text fill="#000000" font-family="sans-serif" font-size="14" lengthAdjust="spacing" textLength="236.6055" x="414.08" y="387.3931">+handleInput(event:KeyEvent):void</text><text fill="#000000" font-family="sans-serif" font-size="14" lengthAdjust="spacing" textLength="172.6416" x="414.08" y="403.8814">+updateGameLoop():void</text><text fill="#000000" font-family="sans-serif" font-size="14" lengthAdjust="spacing" textLength="118.7402" x="414.08" y="420.3697">-gamestart():void</text><text fill="#000000" font-family="sans-serif" font-size="14" lengthAdjust="spacing" textLength="181.5967" x="414.08" y="436.858">+CheckWallCollision():void</text><text fill="#000000" font-family="sans-serif" font-size="14" lengthAdjust="spacing" textLength="198.2559" x="414.08" y="453.3463">+CheckEnemyCollision():void</text><text fill="#000000" font-family="sans-serif" font-size="14" lengthAdjust="spacing" textLength="157.0078" x="414.08" y="469.8345">+CheckBaitEaten():void</text><text fill="#000000" font-family="sans-serif" font-size="14" lengthAdjust="spacing" textLength="195.5762" x="414.08" y="486.3228">+CheckSuperBaitEaten():void</text><text fill="#000000" font-family="sans-serif" font-size="14" lengthAdjust="spacing" textLength="147.5537" x="414.08" y="502.8111">+isPacmanalive():void</text></g><!--class Display--><g class="entity" data-entity="Display" data-source-line="34" data-uid="ent0005" id="entity_Display"><rect fill="#F1F1F1" height="113.9531" rx="2.5" ry="2.5" style="stroke:#181818;stroke-width:0.5;" width="240.7578" x="7" y="644.48"/><ellipse cx="97.2036" cy="660.48" fill="#ADD1B2" rx="11" ry="11" style="stroke:#181818;stroke-width:1;"/><path d="M99.6768,666.6231 Q99.0957,666.9219 98.4565,667.0713 Q97.8174,667.2207 97.1118,667.2207 Q94.605,667.2207 93.2852,665.5689 Q91.9653,663.917 91.9653,660.7959 Q91.9653,657.6665 93.2852,656.0147 Q94.605,654.3628 97.1118,654.3628 Q97.8174,654.3628 98.4648,654.5122 Q99.1123,654.6616 99.6768,654.9605 L99.6768,657.6831 Q99.0459,657.1021 98.4524,656.8323 Q97.8589,656.5625 97.228,656.5625 Q95.8833,656.5625 95.1985,657.6292 Q94.5137,658.6958 94.5137,660.7959 Q94.5137,662.8877 95.1985,663.9544 Q95.8833,665.021 97.228,665.021 Q97.8589,665.021 98.4524,664.7512 Q99.0459,664.4815 99.6768,663.9004 Z " fill="#000000"/><text fill="#000000" font-family="sans-serif" font-size="14" lengthAdjust="spacing" textLength="51.8506" x="117.7036" y="665.771">GUI&#30011;&#38754;</text><line style="stroke:#181818;stroke-width:0.5;" x1="8" x2="246.7578" y1="676.48" y2="676.48"/><text fill="#000000" font-family="sans-serif" font-size="14" lengthAdjust="spacing" textLength="131.5166" x="13" y="694.0152">-GameManager gm</text><line style="stroke:#181818;stroke-width:0.5;" x1="8" x2="246.7578" y1="700.9683" y2="700.9683"/><text fill="#000000" font-family="sans-serif" font-size="14" lengthAdjust="spacing" textLength="221.3545" x="13" y="718.5034">+update(event: GameEvent):void</text><text fill="#000000" font-family="sans-serif" font-size="14" lengthAdjust="spacing" textLength="122.1172" x="13" y="734.9917">-drawGame():void</text><text fill="#000000" font-family="sans-serif" font-size="14" lengthAdjust="spacing" textLength="228.7578" x="13" y="751.48">-KeyPressed(event:KeyEvent):void</text></g><!--class tile--><g class="entity" data-entity="tile" data-source-line="41" data-uid="ent0006" id="entity_tile"><rect fill="#F1F1F1" height="130.4414" rx="2.5" ry="2.5" style="stroke:#181818;stroke-width:0.5;" width="145.8271" x="376.47" y="893.14"/><ellipse cx="432.7605" cy="909.14" fill="#ADD1B2" rx="11" ry="11" style="stroke:#181818;stroke-width:1;"/><path d="M435.2337,915.2831 Q434.6526,915.5819 434.0135,915.7313 Q433.3743,915.8807 432.6687,915.8807 Q430.1619,915.8807 428.8421,914.2289 Q427.5222,912.577 427.5222,909.4559 Q427.5222,906.3265 428.8421,904.6747 Q430.1619,903.0228 432.6687,903.0228 Q433.3743,903.0228 434.0218,903.1722 Q434.6692,903.3216 435.2337,903.6205 L435.2337,906.3431 Q434.6028,905.7621 434.0093,905.4923 Q433.4158,905.2225 432.7849,905.2225 Q431.4402,905.2225 430.7554,906.2892 Q430.0706,907.3558 430.0706,909.4559 Q430.0706,911.5477 430.7554,912.6144 Q431.4402,913.681 432.7849,913.681 Q433.4158,913.681 434.0093,913.4112 Q434.6028,913.1415 435.2337,912.5604 Z " fill="#000000"/><text fill="#000000" font-family="sans-serif" font-size="14" lengthAdjust="spacing" textLength="24.7461" x="453.2605" y="914.431">Tile</text><line style="stroke:#181818;stroke-width:0.5;" x1="377.47" x2="521.2971" y1="925.14" y2="925.14"/><text fill="#000000" font-family="sans-serif" font-size="14" lengthAdjust="spacing" textLength="42.1162" x="382.47" y="942.6752">+int x</text><text fill="#000000" font-family="sans-serif" font-size="14" lengthAdjust="spacing" textLength="40.8447" x="382.47" y="959.1634">+int y</text><text fill="#000000" font-family="sans-serif" font-size="14" lengthAdjust="spacing" textLength="95.6621" x="382.47" y="975.6517">+boolean bait</text><text fill="#000000" font-family="sans-serif" font-size="14" lengthAdjust="spacing" textLength="133.8271" x="382.47" y="992.14">+boolean superbait</text><text fill="#000000" font-family="sans-serif" font-size="14" lengthAdjust="spacing" textLength="79.4473" x="382.47" y="1008.6283">+int[] block</text><line style="stroke:#181818;stroke-width:0.5;" x1="377.47" x2="521.2971" y1="1015.5814" y2="1015.5814"/></g><!--class board--><g class="entity" data-entity="board" data-source-line="49" data-uid="ent0007" id="entity_board"><rect fill="#F1F1F1" height="130.4414" rx="2.5" ry="2.5" style="stroke:#181818;stroke-width:0.5;" width="333.4668" x="282.65" y="636.23"/><ellipse cx="425.6715" cy="652.23" fill="#ADD1B2" rx="11" ry="11" style="stroke:#181818;stroke-width:1;"/><path d="M428.1446,658.3731 Q427.5636,658.6719 426.9244,658.8213 Q426.2853,658.9707 425.5797,658.9707 Q423.0729,658.9707 421.753,657.3189 Q420.4332,655.667 420.4332,652.5459 Q420.4332,649.4165 421.753,647.7647 Q423.0729,646.1128 425.5797,646.1128 Q426.2853,646.1128 426.9327,646.2622 Q427.5802,646.4116 428.1446,646.7105 L428.1446,649.4331 Q427.5138,648.8521 426.9203,648.5823 Q426.3268,648.3125 425.6959,648.3125 Q424.3512,648.3125 423.6664,649.3792 Q422.9815,650.4458 422.9815,652.5459 Q422.9815,654.6377 423.6664,655.7044 Q424.3512,656.771 425.6959,656.771 Q426.3268,656.771 426.9203,656.5012 Q427.5138,656.2315 428.1446,655.6504 Z " fill="#000000"/><text fill="#000000" font-family="sans-serif" font-size="14" lengthAdjust="spacing" textLength="38.9238" x="446.1715" y="657.521">Board</text><line style="stroke:#181818;stroke-width:0.5;" x1="283.65" x2="615.1168" y1="668.23" y2="668.23"/><text fill="#000000" font-family="sans-serif" font-size="14" lengthAdjust="spacing" textLength="60.5391" x="288.65" y="685.7652">+int size</text><text fill="#000000" font-family="sans-serif" font-size="14" lengthAdjust="spacing" textLength="112.1436" x="288.65" y="702.2534">+int baitnumber</text><text fill="#000000" font-family="sans-serif" font-size="14" lengthAdjust="spacing" textLength="88.1836" x="288.65" y="718.7417">-tiles: Tile[][]</text><line style="stroke:#181818;stroke-width:0.5;" x1="283.65" x2="615.1168" y1="725.6948" y2="725.6948"/><text fill="#000000" font-family="sans-serif" font-size="14" lengthAdjust="spacing" textLength="220.5273" x="288.65" y="743.23">+ConsumeBait(int: x, int: y):void</text><text fill="#000000" font-family="sans-serif" font-size="14" lengthAdjust="spacing" textLength="321.4668" x="288.65" y="759.7183">+isWall(int: x_1, int: y_1, int: x_2, int: y_2):void</text></g><!--class pacman--><g class="entity" data-entity="pacman" data-source-line="58" data-uid="ent0008" id="entity_pacman"><rect fill="#F1F1F1" height="229.3711" rx="2.5" ry="2.5" style="stroke:#181818;stroke-width:0.5;" width="233.3545" x="650.7" y="586.77"/><ellipse cx="737.0618" cy="602.77" fill="#ADD1B2" rx="11" ry="11" style="stroke:#181818;stroke-width:1;"/><path d="M739.535,608.9131 Q738.9539,609.2119 738.3147,609.3613 Q737.6756,609.5107 736.97,609.5107 Q734.4632,609.5107 733.1434,607.8589 Q731.8235,606.207 731.8235,603.0859 Q731.8235,599.9565 733.1434,598.3047 Q734.4632,596.6528 736.97,596.6528 Q737.6756,596.6528 738.323,596.8022 Q738.9705,596.9516 739.535,597.2505 L739.535,599.9731 Q738.9041,599.3921 738.3106,599.1223 Q737.7171,598.8525 737.0862,598.8525 Q735.7415,598.8525 735.0567,599.9192 Q734.3719,600.9858 734.3719,603.0859 Q734.3719,605.1777 735.0567,606.2444 Q735.7415,607.311 737.0862,607.311 Q737.7171,607.311 738.3106,607.0412 Q738.9041,606.7715 739.535,606.1904 Z " fill="#000000"/><text fill="#000000" font-family="sans-serif" font-size="14" lengthAdjust="spacing" textLength="52.1309" x="757.5618" y="608.061">Pacman</text><line style="stroke:#181818;stroke-width:0.5;" x1="651.7" x2="883.0545" y1="618.77" y2="618.77"/><text fill="#000000" font-family="sans-serif" font-size="14" lengthAdjust="spacing" textLength="66.6709" x="656.7" y="636.3052">+int state</text><text fill="#000000" font-family="sans-serif" font-size="14" lengthAdjust="spacing" textLength="51.543" x="656.7" y="652.7934">-int life</text><text fill="#000000" font-family="sans-serif" font-size="14" lengthAdjust="spacing" textLength="70.8613" x="656.7" y="669.2817">-int speed</text><text fill="#000000" font-family="sans-serif" font-size="14" lengthAdjust="spacing" textLength="90.6309" x="656.7" y="685.77">-int direction</text><text fill="#000000" font-family="sans-serif" font-size="14" lengthAdjust="spacing" textLength="42.1162" x="656.7" y="702.2583">+int x</text><text fill="#000000" font-family="sans-serif" font-size="14" lengthAdjust="spacing" textLength="40.8447" x="656.7" y="718.7466">+int y</text><text fill="#000000" font-family="sans-serif" font-size="14" lengthAdjust="spacing" textLength="72.4268" x="656.7" y="735.2348">+int nextx</text><text fill="#000000" font-family="sans-serif" font-size="14" lengthAdjust="spacing" textLength="71.1553" x="656.7" y="751.7231">+int nexty</text><line style="stroke:#181818;stroke-width:0.5;" x1="651.7" x2="883.0545" y1="758.6763" y2="758.6763"/><text fill="#000000" font-family="sans-serif" font-size="14" lengthAdjust="spacing" textLength="87.0557" x="656.7" y="776.2114">-move():void</text><text fill="#000000" font-family="sans-serif" font-size="14" lengthAdjust="spacing" textLength="105.335" x="656.7" y="792.6997">-trymove():void</text><text fill="#000000" font-family="sans-serif" font-size="14" lengthAdjust="spacing" textLength="221.3545" x="656.7" y="809.188">+update(event: GameEvent):void</text></g><!--class ghost--><g class="entity" data-entity="ghost" data-source-line="72" data-uid="ent0009" id="entity_ghost"><rect fill="#F1F1F1" height="229.3711" rx="2.5" ry="2.5" style="stroke:#181818;stroke-width:0.5;" width="233.3545" x="918.7" y="586.77"/><ellipse cx="1011.2381" cy="602.77" fill="#ADD1B2" rx="11" ry="11" style="stroke:#181818;stroke-width:1;"/><path d="M1013.7112,608.9131 Q1013.1302,609.2119 1012.491,609.3613 Q1011.8519,609.5107 1011.1463,609.5107 Q1008.6395,609.5107 1007.3196,607.8589 Q1005.9998,606.207 1005.9998,603.0859 Q1005.9998,599.9565 1007.3196,598.3047 Q1008.6395,596.6528 1011.1463,596.6528 Q1011.8519,596.6528 1012.4993,596.8022 Q1013.1468,596.9516 1013.7112,597.2505 L1013.7112,599.9731 Q1013.0804,599.3921 1012.4869,599.1223 Q1011.8934,598.8525 1011.2625,598.8525 Q1009.9178,598.8525 1009.233,599.9192 Q1008.5481,600.9858 1008.5481,603.0859 Q1008.5481,605.1777 1009.233,606.2444 Q1009.9178,607.311 1011.2625,607.311 Q1011.8934,607.311 1012.4869,607.0412 Q1013.0804,606.7715 1013.7112,606.1904 Z " fill="#000000"/><text fill="#000000" font-family="sans-serif" font-size="14" lengthAdjust="spacing" textLength="39.7783" x="1031.7381" y="608.061">Ghost</text><line style="stroke:#181818;stroke-width:0.5;" x1="919.7" x2="1151.0545" y1="618.77" y2="618.77"/><text fill="#000000" font-family="sans-serif" font-size="14" lengthAdjust="spacing" textLength="63.6426" x="924.7" y="636.3052">-int state</text><text fill="#000000" font-family="sans-serif" font-size="14" lengthAdjust="spacing" textLength="64.6475" x="924.7" y="652.7934">-int color</text><text fill="#000000" font-family="sans-serif" font-size="14" lengthAdjust="spacing" textLength="70.8613" x="924.7" y="669.2817">-int speed</text><text fill="#000000" font-family="sans-serif" font-size="14" lengthAdjust="spacing" textLength="106.0938" x="924.7" y="685.77">-enum Strategy</text><text fill="#000000" font-family="sans-serif" font-size="14" lengthAdjust="spacing" textLength="42.1162" x="924.7" y="702.2583">+int x</text><text fill="#000000" font-family="sans-serif" font-size="14" lengthAdjust="spacing" textLength="40.8447" x="924.7" y="718.7466">+int y</text><text fill="#000000" font-family="sans-serif" font-size="14" lengthAdjust="spacing" textLength="72.4268" x="924.7" y="735.2348">+int nextx</text><text fill="#000000" font-family="sans-serif" font-size="14" lengthAdjust="spacing" textLength="71.1553" x="924.7" y="751.7231">+int nexty</text><line style="stroke:#181818;stroke-width:0.5;" x1="919.7" x2="1151.0545" y1="758.6763" y2="758.6763"/><text fill="#000000" font-family="sans-serif" font-size="14" lengthAdjust="spacing" textLength="87.0557" x="924.7" y="776.2114">-move():void</text><text fill="#000000" font-family="sans-serif" font-size="14" lengthAdjust="spacing" textLength="105.335" x="924.7" y="792.6997">-trymove():void</text><text fill="#000000" font-family="sans-serif" font-size="14" lengthAdjust="spacing" textLength="221.3545" x="924.7" y="809.188">+update(event: GameEvent):void</text></g><!--class scoreboard--><g class="entity" data-entity="scoreboard" data-source-line="86" data-uid="ent0010" id="entity_scoreboard"><rect fill="#F1F1F1" height="97.4648" rx="2.5" ry="2.5" style="stroke:#181818;stroke-width:0.5;" width="233.3545" x="1186.7" y="652.72"/><ellipse cx="1261.2459" cy="668.72" fill="#ADD1B2" rx="11" ry="11" style="stroke:#181818;stroke-width:1;"/><path d="M1263.719,674.8631 Q1263.138,675.1619 1262.4988,675.3113 Q1261.8597,675.4607 1261.1541,675.4607 Q1258.6473,675.4607 1257.3274,673.8089 Q1256.0076,672.157 1256.0076,669.0359 Q1256.0076,665.9065 1257.3274,664.2547 Q1258.6473,662.6028 1261.1541,662.6028 Q1261.8597,662.6028 1262.5071,662.7522 Q1263.1546,662.9016 1263.719,663.2005 L1263.719,665.9231 Q1263.0882,665.3421 1262.4947,665.0723 Q1261.9012,664.8025 1261.2703,664.8025 Q1259.9256,664.8025 1259.2408,665.8692 Q1258.556,666.9358 1258.556,669.0359 Q1258.556,671.1277 1259.2408,672.1944 Q1259.9256,673.261 1261.2703,673.261 Q1261.9012,673.261 1262.4947,672.9912 Q1263.0882,672.7215 1263.719,672.1404 Z " fill="#000000"/><text fill="#000000" font-family="sans-serif" font-size="14" lengthAdjust="spacing" textLength="75.7627" x="1281.7459" y="674.011">ScoreBoard</text><line style="stroke:#181818;stroke-width:0.5;" x1="1187.7" x2="1419.0545" y1="684.72" y2="684.72"/><text fill="#000000" font-family="sans-serif" font-size="14" lengthAdjust="spacing" textLength="66.9375" x="1192.7" y="702.2552">-int score</text><line style="stroke:#181818;stroke-width:0.5;" x1="1187.7" x2="1419.0545" y1="709.2083" y2="709.2083"/><text fill="#000000" font-family="sans-serif" font-size="14" lengthAdjust="spacing" textLength="170.3174" x="1192.7" y="726.7434">-addScore(int:point):void</text><text fill="#000000" font-family="sans-serif" font-size="14" lengthAdjust="spacing" textLength="221.3545" x="1192.7" y="743.2317">+update(event: GameEvent):void</text></g><!--class GameEvent--><g class="entity" data-entity="GameEvent" data-source-line="94" data-uid="ent0011" id="entity_GameEvent"><rect fill="#F1F1F1" height="130.4414" rx="2.5" ry="2.5" style="stroke:#181818;stroke-width:0.5;" width="183.2607" x="963.75" y="7"/><ellipse cx="1013.4917" cy="23" fill="#EB937F" rx="11" ry="11" style="stroke:#181818;stroke-width:1;"/><path d="M1017.106,29.5 L1009.3862,29.5 L1009.3862,17.1069 L1017.106,17.1069 L1017.106,19.2651 L1011.835,19.2651 L1011.835,21.938 L1016.6079,21.938 L1016.6079,24.0962 L1011.835,24.0962 L1011.835,27.3418 L1017.106,27.3418 Z " fill="#000000"/><text fill="#000000" font-family="sans-serif" font-size="14" lengthAdjust="spacing" textLength="75.2773" x="1033.9917" y="28.291">GameEvent</text><line style="stroke:#181818;stroke-width:0.5;" x1="964.75" x2="1146.0107" y1="39" y2="39"/><text fill="#000000" font-family="sans-serif" font-size="14" lengthAdjust="spacing" textLength="98.7383" x="969.75" y="56.5352">PACMAN_DIED</text><text fill="#000000" font-family="sans-serif" font-size="14" lengthAdjust="spacing" textLength="129.8418" x="969.75" y="73.0234">PACMAN_EAT_BAIT</text><text fill="#000000" font-family="sans-serif" font-size="14" lengthAdjust="spacing" textLength="171.2607" x="969.75" y="89.5117">PACMAN_EAT_SUPERBAIT</text><text fill="#000000" font-family="sans-serif" font-size="14" lengthAdjust="spacing" textLength="82.8926" x="969.75" y="106">GAME_OVER</text><text fill="#000000" font-family="sans-serif" font-size="14" lengthAdjust="spacing" textLength="94.0078" x="969.75" y="122.4883">STAGE_CLEAR</text><line style="stroke:#181818;stroke-width:0.5;" x1="964.75" x2="1146.0107" y1="129.4414" y2="129.4414"/></g><!--class KeyEvent--><g class="entity" data-entity="KeyEvent" data-source-line="102" data-uid="ent0012" id="entity_KeyEvent"><rect fill="#F1F1F1" height="113.9531" rx="2.5" ry="2.5" style="stroke:#181818;stroke-width:0.5;" width="92.8125" x="1181.97" y="15.25"/><ellipse cx="1196.97" cy="31.25" fill="#EB937F" rx="11" ry="11" style="stroke:#181818;stroke-width:1;"/><path d="M1200.5843,37.75 L1192.8645,37.75 L1192.8645,25.3569 L1200.5843,25.3569 L1200.5843,27.5151 L1195.3133,27.5151 L1195.3133,30.188 L1200.0862,30.188 L1200.0862,32.3462 L1195.3133,32.3462 L1195.3133,35.5918 L1200.5843,35.5918 Z " fill="#000000"/><text fill="#000000" font-family="sans-serif" font-size="14" lengthAdjust="spacing" textLength="60.8125" x="1210.97" y="36.541">KeyEvent</text><line style="stroke:#181818;stroke-width:0.5;" x1="1182.97" x2="1273.7825" y1="47.25" y2="47.25"/><text fill="#000000" font-family="sans-serif" font-size="14" lengthAdjust="spacing" textLength="17.4385" x="1187.97" y="64.7852">UP</text><text fill="#000000" font-family="sans-serif" font-size="14" lengthAdjust="spacing" textLength="31.4111" x="1187.97" y="81.2734">LEFT</text><text fill="#000000" font-family="sans-serif" font-size="14" lengthAdjust="spacing" textLength="42.1436" x="1187.97" y="97.7617">RIGHT</text><text fill="#000000" font-family="sans-serif" font-size="14" lengthAdjust="spacing" textLength="43.6816" x="1187.97" y="114.25">DOWN</text><line style="stroke:#181818;stroke-width:0.5;" x1="1182.97" x2="1273.7825" y1="121.2031" y2="121.2031"/></g><!--class Strategy--><g class="entity" data-entity="Strategy" data-source-line="109" data-uid="ent0013" id="entity_Strategy"><rect fill="#F1F1F1" height="130.4414" rx="2.5" ry="2.5" style="stroke:#181818;stroke-width:0.5;" width="115.8105" x="997.47" y="296.88"/><ellipse cx="1025.2924" cy="312.88" fill="#EB937F" rx="11" ry="11" style="stroke:#181818;stroke-width:1;"/><path d="M1028.9066,319.38 L1021.1869,319.38 L1021.1869,306.9869 L1028.9066,306.9869 L1028.9066,309.1451 L1023.6356,309.1451 L1023.6356,311.818 L1028.4086,311.818 L1028.4086,313.9762 L1023.6356,313.9762 L1023.6356,317.2218 L1028.9066,317.2218 Z " fill="#000000"/><text fill="#000000" font-family="sans-serif" font-size="14" lengthAdjust="spacing" textLength="55.3164" x="1042.1418" y="318.171">Strategy</text><line style="stroke:#181818;stroke-width:0.5;" x1="998.47" x2="1112.2805" y1="328.88" y2="328.88"/><text fill="#000000" font-family="sans-serif" font-size="14" lengthAdjust="spacing" textLength="62.2754" x="1003.47" y="346.4152">RANDOM</text><text fill="#000000" font-family="sans-serif" font-size="14" lengthAdjust="spacing" textLength="44.7617" x="1003.47" y="362.9034">CHASE</text><text fill="#000000" font-family="sans-serif" font-size="14" lengthAdjust="spacing" textLength="103.8105" x="1003.47" y="379.3917">GO_LEFT_ONLY</text><text fill="#000000" font-family="sans-serif" font-size="14" lengthAdjust="spacing" textLength="49.7998" x="1003.47" y="395.88">ESCAPE</text><text fill="#000000" font-family="sans-serif" font-size="14" lengthAdjust="spacing" textLength="13.2891" x="1003.47" y="412.3683">...</text><line style="stroke:#181818;stroke-width:0.5;" x1="998.47" x2="1112.2805" y1="419.3214" y2="419.3214"/></g><!--reverse link subject to GM--><g class="link" data-entity-1="subject" data-entity-2="GM" data-source-line="117" data-uid="lnk14" id="link_subject_GM"><path codeLine="117" d="M532.38,139.41 C532.38,165.26 532.38,180.65 532.38,214.25" fill="none" id="subject-backto-GM" style="stroke:#181818;stroke-width:1;stroke-dasharray:7,7;"/><polygon fill="none" points="532.38,121.41,526.38,139.41,538.38,139.41,532.38,121.41" style="stroke:#181818;stroke-width:1;"/><text fill="#000000" font-family="sans-serif" font-size="13" lengthAdjust="spacing" textLength="74.0137" x="533.38" y="181.0084">implements</text></g><!--reverse link observer to Display--><g class="link" data-entity-1="observer" data-entity-2="Display" data-source-line="118" data-uid="lnk15" id="link_observer_Display"><path codeLine="118" d="M798.9966,407.0763 C765.5966,438.1763 725.09,473.77 674.38,509.77 C640.44,533.86 633.04,544.13 593.38,556.77 C453.9,601.21 400.76,531.09 265.38,586.77 C233.94,599.69 204.15,622.36 180.35,644.07" fill="none" id="observer-backto-Display" style="stroke:#181818;stroke-width:1;stroke-dasharray:7,7;"/><polygon fill="none" points="812.17,394.81,794.9078,402.6851,803.0853,411.4674,812.17,394.81" style="stroke:#181818;stroke-width:1;"/><text fill="#000000" font-family="sans-serif" font-size="13" lengthAdjust="spacing" textLength="74.0137" x="633" y="553.3384">implements</text></g><!--reverse link observer to pacman--><g class="link" data-entity-1="observer" data-entity-2="pacman" data-source-line="119" data-uid="lnk16" id="link_observer_pacman"><path codeLine="119" d="M833.9849,412.3773 C823.9149,455.9273 809.34,518.95 793.74,586.43" fill="none" id="observer-backto-pacman" style="stroke:#181818;stroke-width:1;stroke-dasharray:7,7;"/><polygon fill="none" points="838.04,394.84,828.1391,411.0256,839.8306,413.729,838.04,394.84" style="stroke:#181818;stroke-width:1;"/><text fill="#000000" font-family="sans-serif" font-size="13" lengthAdjust="spacing" textLength="74.0137" x="805.04" y="553.3384">implements</text></g><!--reverse link observer to ghost--><g class="link" data-entity-1="observer" data-entity-2="ghost" data-source-line="120" data-uid="lnk17" id="link_observer_ghost"><path codeLine="120" d="M893.4207,407.31 C927.7307,440.27 966,482.49 995.38,539.77 C1002.86,554.35 1008.99,570.4 1014,586.55" fill="none" id="observer-backto-ghost" style="stroke:#181818;stroke-width:1;stroke-dasharray:7,7;"/><polygon fill="none" points="880.44,394.84,889.2641,411.6369,897.5774,402.9831,880.44,394.84" style="stroke:#181818;stroke-width:1;"/><text fill="#000000" font-family="sans-serif" font-size="13" lengthAdjust="spacing" textLength="74.0137" x="1003.93" y="553.3384">implements</text></g><!--reverse link observer to scoreboard--><g class="link" data-entity-1="observer" data-entity-2="scoreboard" data-source-line="121" data-uid="lnk18" id="link_observer_scoreboard"><path codeLine="121" d="M876.8465,409.4856 C900.6365,442.9156 932,480.1 980.38,509.77 C1022.48,535.59 1041.83,520.68 1087.38,539.77 C1126.12,556.01 1135,562.63 1169.38,586.77 C1197.72,606.66 1227.27,631.26 1251.39,652.48" fill="none" id="observer-backto-scoreboard" style="stroke:#181818;stroke-width:1;stroke-dasharray:7,7;"/><polygon fill="none" points="866.41,394.82,871.958,412.9644,881.7351,406.0067,866.41,394.82" style="stroke:#181818;stroke-width:1;"/><text fill="#000000" font-family="sans-serif" font-size="13" lengthAdjust="spacing" textLength="74.0137" x="1124.08" y="553.3384">implements</text></g><!--link GM to observer--><g class="link" data-entity-1="GM" data-entity-2="observer" data-source-line="122" data-uid="lnk19" id="link_GM_observer"><path codeLine="122" d="M668.98,362.11 C692.51,362.11 699.04,362.11 722.33,362.11" fill="none" id="GM-observer" style="stroke:#181818;stroke-width:1;"/><polygon fill="none" points="656.98,362.11,662.98,366.11,668.98,362.11,662.98,358.11,656.98,362.11" style="stroke:#181818;stroke-width:1;"/><polygon fill="#181818" points="728.33,362.11,719.33,358.11,723.33,362.11,719.33,366.11,728.33,362.11" style="stroke:#181818;stroke-width:1;"/><text fill="#000000" font-family="sans-serif" font-size="13" lengthAdjust="spacing" textLength="36.2451" x="674.69" y="355.6784">notify</text></g><!--link GM to Display--><g class="link" data-entity-1="GM" data-entity-2="Display" data-source-line="123" data-uid="lnk20" id="link_GM_Display"><path codeLine="123" d="M398.6202,474.5208 C328.5302,532.9108 257.5602,592.02 199.6802,640.23" fill="none" id="GM-Display" style="stroke:#181818;stroke-width:1;"/><polygon fill="none" points="407.84,466.84,400.6698,467.6071,398.6202,474.5208,405.7903,473.7537,407.84,466.84" style="stroke:#181818;stroke-width:1;"/><polygon fill="#181818" points="195.07,644.07,204.5454,641.3835,198.9119,640.87,199.4254,635.2365,195.07,644.07" style="stroke:#181818;stroke-width:1;"/><text fill="#000000" font-family="sans-serif" font-size="13" lengthAdjust="spacing" textLength="36.2451" x="318.74" y="553.3384">notify</text></g><!--link Display to GM--><g class="link" data-entity-1="Display" data-entity-2="GM" data-source-line="129" data-uid="lnk26" id="link_Display_GM"><path codeLine="129" d="M151.57,644.23 C167.95,610.93 192.12,569.55 222.38,539.77 C275.36,487.63 341.4068,448.1997 402.3368,418.2097" fill="none" id="Display-to-GM" style="stroke:#181818;stroke-width:1;stroke-dasharray:7,7;"/><polygon fill="#181818" points="407.72,415.56,397.8787,415.9457,403.234,417.768,401.4116,423.1233,407.72,415.56" style="stroke:#181818;stroke-width:1;"/><text fill="#000000" font-family="sans-serif" font-size="13" lengthAdjust="spacing" textLength="73.7979" x="223.38" y="553.3384">sends input</text></g><!--link GM to ghost--><g class="link" data-entity-1="GM" data-entity-2="ghost" data-source-line="124" data-uid="lnk21" id="link_GM_ghost"><path codeLine="124" d="M666.3909,498.5195 C696.4809,523.5795 720.78,539.68 755.38,556.77 C814.77,586.11 841.82,557.77 901.38,586.77 C907.14,589.57 907.7014,589.6159 913.3414,592.9659" fill="none" id="GM-ghost" style="stroke:#181818;stroke-width:1;"/><polygon fill="none" points="657.17,490.84,659.2206,497.7534,666.3909,498.5195,664.3403,491.6061,657.17,490.84" style="stroke:#181818;stroke-width:1;"/><polygon fill="#181818" points="918.5,596.03,912.8048,587.9948,914.2011,593.4766,908.7193,594.873,918.5,596.03" style="stroke:#181818;stroke-width:1;"/><text fill="#000000" font-family="sans-serif" font-size="13" lengthAdjust="spacing" textLength="36.2451" x="756.38" y="553.3384">notify</text></g><!--link GM to pacman--><g class="link" data-entity-1="GM" data-entity-2="pacman" data-source-line="125" data-uid="lnk22" id="link_GM_pacman"><path codeLine="125" d="M532.1451,521.6478 C536.7451,538.5278 540.73,543.01 551.38,556.77 C575.14,587.45 599.84,567.24 633.38,586.77 C639.05,590.07 639.7109,590.2921 645.3309,594.0221" fill="none" id="GM-pacman" style="stroke:#181818;stroke-width:1;"/><polygon fill="none" points="528.99,510.07,526.7083,516.9106,532.1451,521.6478,534.4268,514.8072,528.99,510.07" style="stroke:#181818;stroke-width:1;"/><polygon fill="#181818" points="650.33,597.34,645.0433,589.0303,646.1641,594.5751,640.6193,595.6959,650.33,597.34" style="stroke:#181818;stroke-width:1;"/><text fill="#000000" font-family="sans-serif" font-size="13" lengthAdjust="spacing" textLength="36.2451" x="552.38" y="553.3384">notify</text></g><!--link GM to scoreboard--><g class="link" data-entity-1="GM" data-entity-2="scoreboard" data-source-line="126" data-uid="lnk23" id="link_GM_scoreboard"><path codeLine="126" d="M666.8808,485.1285 C684.2708,497.1885 692.73,501.28 711.38,509.77 C784,542.82 810.51,522.37 888.38,539.77 C915.85,545.91 921.82,551.08 949.38,556.77 C1046.02,576.73 1079.25,546.57 1169.38,586.77 C1203.51,601.99 1231.3681,624.4872 1255.6181,648.1772" fill="none" id="GM-scoreboard" style="stroke:#181818;stroke-width:1;"/><polygon fill="none" points="657.02,478.29,659.6709,484.9962,666.8808,485.1285,664.2299,478.4223,657.02,478.29" style="stroke:#181818;stroke-width:1;"/><polygon fill="#181818" points="1259.91,652.37,1256.2673,643.2195,1256.3334,648.876,1250.6769,648.9421,1259.91,652.37" style="stroke:#181818;stroke-width:1;"/><text fill="#000000" font-family="sans-serif" font-size="13" lengthAdjust="spacing" textLength="36.2451" x="950.38" y="553.3384">notify</text></g><!--reverse link board to tile--><g class="link" data-entity-1="board" data-entity-2="tile" data-source-line="127" data-uid="lnk24" id="link_board_tile"><path codeLine="127" d="M449.38,779.11 C449.38,817.6 449.38,854.29 449.38,892.78" fill="none" id="board-backto-tile" style="stroke:#181818;stroke-width:1;"/><polygon fill="#181818" points="449.38,767.11,445.38,773.11,449.38,779.11,453.38,773.11,449.38,767.11" style="stroke:#181818;stroke-width:1;"/><text fill="#000000" font-family="sans-serif" font-size="13" lengthAdjust="spacing" textLength="21.874" x="450.38" y="859.7084">has</text><text fill="#000000" font-family="sans-serif" font-size="13" lengthAdjust="spacing" textLength="8.2202" x="440.9785" y="787.2389">1</text><text fill="#000000" font-family="sans-serif" font-size="13" lengthAdjust="spacing" textLength="6.2651" x="443.066" y="882.3721">*</text></g><!--reverse link GM to board--><g class="link" data-entity-1="GM" data-entity-2="board" data-source-line="128" data-uid="lnk25" id="link_GM_board"><path codeLine="128" d="M478.9044,521.6256 C476.1044,531.6256 476.72,530.04 474.38,539.77 C466.86,571.06 461.08,606.35 456.98,635.87" fill="none" id="GM-backto-board" style="stroke:#181818;stroke-width:1;"/><polygon fill="none" points="482.14,510.07,476.6704,514.7693,478.9044,521.6256,484.3741,516.9263,482.14,510.07" style="stroke:#181818;stroke-width:1;"/><text fill="#000000" font-family="sans-serif" font-size="13" lengthAdjust="spacing" textLength="21.874" x="475.38" y="553.3384">has</text><text fill="#000000" font-family="sans-serif" font-size="13" lengthAdjust="spacing" textLength="8.2202" x="471.518" y="530.1764">1</text><text fill="#000000" font-family="sans-serif" font-size="13" lengthAdjust="spacing" textLength="8.2202" x="449.3854" y="625.4621">1</text></g><!--SRC=[pLPRZzj457xthnZbfQ75MTh7A5h9cvWq8jb4IPOAhLRHn9vDXhKzbcUy952aiYkUzWcrF5G88Mu5WLfnaNW1n8y9wSA_uCp5iRERXZuXzc5zvZktxrmypesf436lxkp40Ov46WOLZuKxNe0vjtsA9maEBNv2enY3X1Jk297GSIf8osFHWBvBq6kMPT58aEGOUmIL1kduRUA94i8SSIs_Po7ukuM5mDwqpCQS9ASagNQDy4hrb55Vs_ZatsqY9kZnl4nEIIIgg8b3uahHcBo_nYRpLtIog8PF6ljOa2rnLC6e93KT7E692TFiw03s7iE9ZyRolmPws0jnX6Brq52RSb5hJXaNksWY7xo0P-nsLzIuzL_sIfbCSUG7f1N5gJ1sRv3vDIlTB1cWpLXSBgZi2O1Su4GKqLlrAV5Exk4WgBCWe9oowBhQZKWutwBVmrIua7Q3Qf369DcifrpF0GVqb9IlZ_EWTVderxy__K8Diq4vBF_SJBGmQZG9NsPDb9kVu7UaOgqjqCLUGZWd_kQsveo6D22AZ031B2ViC9hbuboBOyO20XisXiBN4IxxaSFWStY4nW7pJWg9rCAgJ6ff2waulCdvISQ9qd1C4jDn5l4q9BBTPIgxC7iLgUUyMB1apwj8LdDuT7YK3KFkWF4QtSxyLj9iT6U5tJ7H2epr91Lb_LQX8ca1Wz6vvJ6WnuKJZmdnywDF4xY9OCksjLUA4Pc9sVfHQ-sGdQvFM2JpgzZBNohoBb1rgLl1b6LlACjZ0KisraLWHcWW4Z2VpFydTGqybf1ypxWy5fPDbo11VSI-hppKWiICRhfqjYIrBDM3bKQriUVKEyx-gD5o6_d9TOQZFQSrN4S61pstR-2cqt57tJVTFiY3eTDqH_Msw_Hb6fKaUtrr8GSzzMYxhm-Lq6yrxsgfqRstltBAfgET-iv-ezjHOlskCt2LrEoEP9HHTx_zbWBSGTtfQLsbKf6Xp7SKrUvNAl3vGLL4mpWW8R3XLdR_QwsvpxQPc1TfYuLUoIq6-LZNhO0Ri_ElMLL_VZGCk25t5LRfheAQvLKqJvnfD8lIxHAwQTkeTBEaRb6WDSMAZzGmgO5dnbYgiaPLAhkwfPn4FeUh2Bw3rWrqq4AG3dxZY8G5SARHCVDOcd22RALGOdNnuC7bDnzTVlBikWaNgGzD0GNy54a3COUGgWPp1EVpfukp7nPdNotEVrwSFrcS_xOu-mNiZMTcRuuljWV3sdqeSULNm5QvSnwePg_ue-SN7ov_V_ZyuyVBXv-3YS5hTfuLBN_y-iy_dYq-UBmukyZPwV1XNkKQldpwPFdbztzzzzFbjnSWNpxwp5BHLJjrMNcx_W40]--></g></svg>