<svg xmlns="http://www.w3.org/2000/svg" xmlns:xlink="http://www.w3.org/1999/xlink" contentStyleType="text/css" data-diagram-type="SEQUENCE" height="506px" preserveAspectRatio="none" style="width:715px;height:506px;background:#FFFFFF;" version="1.1" viewBox="0 0 715 506" width="715px" zoomAndPan="magnify"><defs/><g><g><title>...</title><rect fill="#FFFFFF" height="59.3105" style="stroke:#181818;stroke-width:1;" width="10" x="117" y="67.7988"/></g><g><title>...</title><rect fill="#FFFFFF" height="29.3105" style="stroke:#181818;stroke-width:1;" width="10" x="117" y="364.2832"/></g><g><title>....</title><rect fill="#FFFFFF" height="186.5527" style="stroke:#181818;stroke-width:1;" width="10" x="237" y="97.1094"/></g><g><title>......</title><rect fill="#FFFFFF" height="29.3105" style="stroke:#181818;stroke-width:1;" width="10" x="383" y="156.4199"/></g><g><title>......</title><rect fill="#FFFFFF" height="29.3105" style="stroke:#181818;stroke-width:1;" width="10" x="383" y="239.3516"/></g><g><title>......</title><rect fill="#FFFFFF" height="176.5527" style="stroke:#181818;stroke-width:1;" width="10" x="491" y="304.9727"/></g><g><title>..........</title><rect fill="#FFFFFF" height="29.3105" style="stroke:#181818;stroke-width:1;" width="10" x="627" y="422.9043"/></g><rect fill="none" height="75.9316" style="stroke:#000000;stroke-width:1.5;" width="250" x="197" y="200.7305"/><g><title>...</title><rect fill="#000000" fill-opacity="0.00000" height="463.0371" width="8" x="29" y="36.4883"/><line style="stroke:#181818;stroke-width:0.5;stroke-dasharray:5,5;" x1="33" x2="33" y1="36.4883" y2="499.5254"/></g><g><title>...</title><rect fill="#000000" fill-opacity="0.00000" height="463.0371" width="8" x="118" y="36.4883"/><line style="stroke:#181818;stroke-width:0.5;stroke-dasharray:5,5;" x1="122" x2="122" y1="36.4883" y2="499.5254"/></g><g><title>....</title><rect fill="#000000" fill-opacity="0.00000" height="463.0371" width="8" x="238" y="36.4883"/><line style="stroke:#181818;stroke-width:0.5;stroke-dasharray:5,5;" x1="242" x2="242" y1="36.4883" y2="499.5254"/></g><g><title>......</title><rect fill="#000000" fill-opacity="0.00000" height="463.0371" width="8" x="384" y="36.4883"/><line style="stroke:#181818;stroke-width:0.5;stroke-dasharray:5,5;" x1="388" x2="388" y1="36.4883" y2="499.5254"/></g><g><title>......</title><rect fill="#000000" fill-opacity="0.00000" height="463.0371" width="8" x="492" y="36.4883"/><line style="stroke:#181818;stroke-width:0.5;stroke-dasharray:5,5;" x1="496" x2="496" y1="36.4883" y2="499.5254"/></g><g><title>..........</title><rect fill="#000000" fill-opacity="0.00000" height="463.0371" width="8" x="628" y="36.4883"/><line style="stroke:#181818;stroke-width:0.5;stroke-dasharray:5,5;" x1="632" x2="632" y1="36.4883" y2="499.5254"/></g><g class="participant participant-head" data-participant="..."><rect fill="#E2E2F0" height="30.4883" rx="2.5" ry="2.5" style="stroke:#181818;stroke-width:0.5;" width="56" x="5" y="5"/><text fill="#000000" font-family="sans-serif" font-size="14" lengthAdjust="spacing" textLength="42" x="12" y="25.5352">&#21033;&#29992;&#32773;</text></g><g class="participant participant-head" data-participant="..."><rect fill="#E2E2F0" height="30.4883" rx="2.5" ry="2.5" style="stroke:#181818;stroke-width:0.5;" width="56" x="94" y="5"/><text fill="#000000" font-family="sans-serif" font-size="14" lengthAdjust="spacing" textLength="42" x="101" y="25.5352">&#36554;&#27490;&#12417;</text></g><g class="participant participant-head" data-participant="...."><rect fill="#E2E2F0" height="30.4883" rx="2.5" ry="2.5" style="stroke:#181818;stroke-width:0.5;" width="70" x="207" y="5"/><text fill="#000000" font-family="sans-serif" font-size="14" lengthAdjust="spacing" textLength="56" x="214" y="25.5352">&#12479;&#12452;&#12510;&#12540;</text></g><g class="participant participant-head" data-participant="......"><rect fill="#E2E2F0" height="30.4883" rx="2.5" ry="2.5" style="stroke:#181818;stroke-width:0.5;" width="98" x="339" y="5"/><text fill="#000000" font-family="sans-serif" font-size="14" lengthAdjust="spacing" textLength="84" x="346" y="25.5352">&#26009;&#37329;&#12513;&#12540;&#12479;&#12540;</text></g><g class="participant participant-head" data-participant="......"><rect fill="#E2E2F0" height="30.4883" rx="2.5" ry="2.5" style="stroke:#181818;stroke-width:0.5;" width="98" x="447" y="5"/><text fill="#000000" font-family="sans-serif" font-size="14" lengthAdjust="spacing" textLength="84" x="454" y="25.5352">&#26009;&#37329;&#12508;&#12483;&#12463;&#12473;</text></g><g class="participant participant-head" data-participant=".........."><rect fill="#E2E2F0" height="30.4883" rx="2.5" ry="2.5" style="stroke:#181818;stroke-width:0.5;" width="154" x="555" y="5"/><text fill="#000000" font-family="sans-serif" font-size="14" lengthAdjust="spacing" textLength="140" x="562" y="25.5352">&#22770;&#12426;&#19978;&#12370;&#31649;&#29702;&#12471;&#12473;&#12486;&#12512;</text></g><g><title>...</title><rect fill="#FFFFFF" height="59.3105" style="stroke:#181818;stroke-width:1;" width="10" x="117" y="67.7988"/></g><g><title>...</title><rect fill="#FFFFFF" height="29.3105" style="stroke:#181818;stroke-width:1;" width="10" x="117" y="364.2832"/></g><g><title>....</title><rect fill="#FFFFFF" height="186.5527" style="stroke:#181818;stroke-width:1;" width="10" x="237" y="97.1094"/></g><g><title>......</title><rect fill="#FFFFFF" height="29.3105" style="stroke:#181818;stroke-width:1;" width="10" x="383" y="156.4199"/></g><g><title>......</title><rect fill="#FFFFFF" height="29.3105" style="stroke:#181818;stroke-width:1;" width="10" x="383" y="239.3516"/></g><g><title>......</title><rect fill="#FFFFFF" height="176.5527" style="stroke:#181818;stroke-width:1;" width="10" x="491" y="304.9727"/></g><g><title>..........</title><rect fill="#FFFFFF" height="29.3105" style="stroke:#181818;stroke-width:1;" width="10" x="627" y="422.9043"/></g><g class="message" data-participant-1="..." data-participant-2="..."><polygon fill="#181818" points="105,63.7988,115,67.7988,105,71.7988,109,67.7988" style="stroke:#181818;stroke-width:1;"/><line style="stroke:#181818;stroke-width:1;" x1="33" x2="111" y1="67.7988" y2="67.7988"/><text fill="#000000" font-family="sans-serif" font-size="13" lengthAdjust="spacing" textLength="65" x="40" y="63.0566">&#36554;&#12434;&#27490;&#12417;&#12427;</text></g><g class="message" data-participant-1="..." data-participant-2="...."><polygon fill="#181818" points="225,93.1094,235,97.1094,225,101.1094,229,97.1094" style="stroke:#181818;stroke-width:1;"/><line style="stroke:#181818;stroke-width:1;" x1="127" x2="231" y1="97.1094" y2="97.1094"/><text fill="#000000" font-family="sans-serif" font-size="13" lengthAdjust="spacing" textLength="91" x="134" y="92.3672">&#36554;&#27490;&#12417;&#12434;&#12354;&#12370;&#12427;</text></g><g class="message" data-participant-1="...." data-participant-2="......"><polygon fill="#181818" points="371,152.4199,381,156.4199,371,160.4199,375,156.4199" style="stroke:#181818;stroke-width:1;"/><line style="stroke:#181818;stroke-width:1;" x1="247" x2="377" y1="156.4199" y2="156.4199"/><text fill="#000000" font-family="sans-serif" font-size="13" lengthAdjust="spacing" textLength="52" x="254" y="151.6777">&#26009;&#37329;&#34920;&#31034;</text></g><g class="message" data-participant-1="......" data-participant-2="...."><polygon fill="#181818" points="258,181.7305,248,185.7305,258,189.7305,254,185.7305" style="stroke:#181818;stroke-width:1;"/><line style="stroke:#181818;stroke-width:1;stroke-dasharray:2,2;" x1="252" x2="387" y1="185.7305" y2="185.7305"/><text fill="#000000" font-family="sans-serif" font-size="13" lengthAdjust="spacing" textLength="52" x="264" y="180.9883">&#34920;&#31034;&#23436;&#20102;</text></g><path d="M197,200.7305 L271.4468,200.7305 L271.4468,208.041 L261.4468,218.041 L197,218.041 L197,200.7305" fill="#EEEEEE" style="stroke:#000000;stroke-width:1.5;"/><rect fill="none" height="75.9316" style="stroke:#000000;stroke-width:1.5;" width="250" x="197" y="200.7305"/><text fill="#000000" font-family="sans-serif" font-size="13" font-weight="bold" lengthAdjust="spacing" textLength="29.4468" x="212" y="214.2988">loop</text><text fill="#000000" font-family="sans-serif" font-size="11" font-weight="bold" lengthAdjust="spacing" textLength="96.1533" x="286.4468" y="213.3652">[&#32076;&#36942;&#26178;&#38291;&#12395;&#24540;&#12376;&#12390;]</text><g class="message" data-participant-1="...." data-participant-2="......"><polygon fill="#181818" points="371,235.3516,381,239.3516,371,243.3516,375,239.3516" style="stroke:#181818;stroke-width:1;"/><line style="stroke:#181818;stroke-width:1;" x1="247" x2="377" y1="239.3516" y2="239.3516"/><text fill="#000000" font-family="sans-serif" font-size="13" lengthAdjust="spacing" textLength="117" x="254" y="234.6094">&#26009;&#37329;&#22679;&#21152;&#12539;&#26356;&#26032;&#25351;&#31034;</text></g><g class="message" data-participant-1="......" data-participant-2="...."><polygon fill="#181818" points="258,264.6621,248,268.6621,258,272.6621,254,268.6621" style="stroke:#181818;stroke-width:1;"/><line style="stroke:#181818;stroke-width:1;stroke-dasharray:2,2;" x1="252" x2="387" y1="268.6621" y2="268.6621"/><text fill="#000000" font-family="sans-serif" font-size="13" lengthAdjust="spacing" textLength="78" x="264" y="263.9199">&#34920;&#31034;&#26356;&#26032;&#32066;&#20102;</text></g><g class="message" data-participant-1="..." data-participant-2="......"><polygon fill="#181818" points="479,300.9727,489,304.9727,479,308.9727,483,304.9727" style="stroke:#181818;stroke-width:1;"/><line style="stroke:#181818;stroke-width:1;" x1="33" x2="485" y1="304.9727" y2="304.9727"/><text fill="#000000" font-family="sans-serif" font-size="13" lengthAdjust="spacing" textLength="52" x="40" y="300.2305">&#26009;&#37329;&#31934;&#31639;</text></g><g class="message" data-participant-1="......" data-participant-2="..."><polygon fill="#181818" points="138,360.2832,128,364.2832,138,368.2832,134,364.2832" style="stroke:#181818;stroke-width:1;"/><line style="stroke:#181818;stroke-width:1;" x1="132" x2="490" y1="364.2832" y2="364.2832"/><text fill="#000000" font-family="sans-serif" font-size="13" lengthAdjust="spacing" textLength="65" x="144" y="359.541">&#36554;&#27490;&#12417;&#35299;&#38500;</text></g><g class="message" data-participant-1="..." data-participant-2="......"><polygon fill="#181818" points="479,389.5938,489,393.5938,479,397.5938,483,393.5938" style="stroke:#181818;stroke-width:1;"/><line style="stroke:#181818;stroke-width:1;stroke-dasharray:2,2;" x1="122" x2="485" y1="393.5938" y2="393.5938"/><text fill="#000000" font-family="sans-serif" font-size="13" lengthAdjust="spacing" textLength="52" x="129" y="388.8516">&#35299;&#38500;&#23436;&#20102;</text></g><g class="message" data-participant-1="......" data-participant-2=".........."><polygon fill="#181818" points="615,418.9043,625,422.9043,615,426.9043,619,422.9043" style="stroke:#181818;stroke-width:1;"/><line style="stroke:#181818;stroke-width:1;" x1="501" x2="621" y1="422.9043" y2="422.9043"/><text fill="#000000" font-family="sans-serif" font-size="13" lengthAdjust="spacing" textLength="78" x="508" y="418.1621">&#22770;&#12426;&#19978;&#12370;&#22577;&#21578;</text></g><g class="message" data-participant-1=".........." data-participant-2="......"><polygon fill="#181818" points="512,448.2148,502,452.2148,512,456.2148,508,452.2148" style="stroke:#181818;stroke-width:1;"/><line style="stroke:#181818;stroke-width:1;stroke-dasharray:2,2;" x1="506" x2="631" y1="452.2148" y2="452.2148"/><text fill="#000000" font-family="sans-serif" font-size="13" lengthAdjust="spacing" textLength="52" x="518" y="447.4727">&#30331;&#37682;&#23436;&#20102;</text></g><g class="message" data-participant-1="......" data-participant-2="..."><polygon fill="#181818" points="44,477.5254,34,481.5254,44,485.5254,40,481.5254" style="stroke:#181818;stroke-width:1;"/><line style="stroke:#181818;stroke-width:1;stroke-dasharray:2,2;" x1="38" x2="495" y1="481.5254" y2="481.5254"/><text fill="#000000" font-family="sans-serif" font-size="13" lengthAdjust="spacing" textLength="52" x="50" y="476.7832">&#31934;&#31639;&#23436;&#20102;</text></g><!--SRC=[ZL9RJi905FsVLSm6s40_s0lQ6aaCuqSrVZep4KnjZA016udX5SKOKOa41IEBkKodtOLJMykGraU_PkQUS-xfkNUxR5fuYn1xWnoWqfvDIfjsURzaMvXK41B7T_9Y61mUuK8H1tF7V-W1ezY8pi0QyHNO2LhL2aLW2s03uDV0tuqLI-61Cg2D26zQQPyKW7HYrD1lUc6j3hohxb5DoSLFGNSe1pECiW1SKBmr0p5MZDpbhAgtpNBH3Y6xM4xSa9xw7WkRvq3lnQ8Dz1Be3SBg-uV3v4tqMiBf09_xLoz-yybtQyh5bqQ-wHpFCLDEMEJSgfYwUns-DgLlzJPm3kmHs5kIcHn_o57hHuqiRstaHdeARlkXDz07hkMWTSKnC0a-Nrxqny2SvQkZjaAEklAi2cogQi2hm3jgpNI0w3oBkeF-uEIxmORqvg4x_iLDP2VDqOZJocxDwhS_0G00]--></g></svg>